<svg width="248" height="253" viewBox="0 0 248 253" fill="none" xmlns="http://www.w3.org/2000/svg">
<path d="M141.1 30.8175C145.456 27.1766 152.08 28.6714 154.452 33.8311L159.489 44.7877C161.224 48.5606 165.4 50.5601 169.425 49.5441L181.113 46.5939C186.616 45.2046 191.936 49.427 191.835 55.1054L191.623 67.1637C191.55 71.3162 194.445 74.9305 198.512 75.7625L210.322 78.1781C215.883 79.3157 218.845 85.4292 216.292 90.5017L210.871 101.274C209.004 104.983 210.046 109.497 213.348 112.012L222.941 119.315C227.458 122.754 227.476 129.548 222.976 133.01L213.421 140.361C210.131 142.893 209.111 147.412 210.998 151.112L216.472 161.856C219.05 166.915 216.12 173.044 210.565 174.21L198.768 176.685C194.706 177.538 191.827 181.167 191.923 185.319L192.197 197.376C192.325 203.054 187.028 207.303 181.517 205.942L169.814 203.05C165.784 202.055 161.618 204.075 159.903 207.857L154.921 218.84C152.575 224.012 145.959 225.54 141.585 221.922L132.295 214.236C129.096 211.589 124.466 211.602 121.28 214.263L112.03 221.996C107.673 225.637 101.05 224.142 98.6775 218.983L93.6401 208.026C91.9056 204.252 87.729 202.254 83.7044 203.269L72.0168 206.219C66.5131 207.609 61.1936 203.386 61.294 197.708L61.5068 185.65C61.5801 181.497 58.6841 177.883 54.6176 177.051L42.8081 174.635C37.2469 173.498 34.2853 167.384 36.8381 162.312L42.2589 151.54C44.1255 147.831 43.084 143.317 39.7807 140.802L30.1884 133.499C25.6711 130.06 25.6539 123.266 30.1536 119.804L39.7089 112.452C42.9992 109.921 44.0181 105.402 42.1326 101.702L36.6572 90.9576C34.0786 85.8981 37.0092 79.7698 42.5646 78.6039L54.3616 76.1282C58.424 75.2758 61.3016 71.6467 61.2072 67.4947L60.9333 55.4375C60.8043 49.7598 66.1021 45.5105 71.6129 46.8718L83.3152 49.7627C87.345 50.7581 91.5114 48.7375 93.2268 44.9558L98.2085 33.9739C100.554 28.8023 107.17 27.2737 111.545 30.8926L120.835 38.5773C124.034 41.2236 128.664 41.2119 131.849 38.5494L141.1 30.8175Z" fill="#F8FD1F"/>
<path d="M53.2042 103.431L60.5352 100.953L78.4542 121.597L78.8418 121.466L80.5582 94.1834L87.8893 91.705L99.0695 124.775L93.3209 126.719L85.64 103.999L85.3332 104.103L83.8418 129.815L79.5465 131.268L62.7424 111.686L62.4356 111.79L70.1329 134.558L64.3844 136.501L53.2042 103.431ZM126.37 97.1206C127.575 100.684 127.939 103.961 127.463 106.953C126.994 109.931 125.841 112.48 124.003 114.601C122.176 116.718 119.814 118.266 116.918 119.245C114.022 120.224 111.201 120.428 108.453 119.858C105.712 119.273 103.246 117.941 101.056 115.863C98.8733 113.77 97.1813 110.947 95.9803 107.395C94.7757 103.831 94.4078 100.561 94.8766 97.5836C95.3526 94.5918 96.5042 92.0373 98.3315 89.9201C100.17 87.7992 102.536 86.2493 105.432 85.2703C108.328 84.2913 111.145 84.0889 113.882 84.663C116.63 85.2334 119.095 86.5651 121.278 88.658C123.468 90.7365 125.166 93.5574 126.37 97.1206ZM120.347 99.1569C119.499 96.6486 118.391 94.6661 117.023 93.2094C115.662 91.7382 114.143 90.7942 112.467 90.3773C110.787 89.9497 109.048 90.0397 107.25 90.6475C105.452 91.2553 104.016 92.2388 102.94 93.5982C101.86 94.9468 101.22 96.6205 101.021 98.6193C100.828 100.604 101.155 102.85 102.003 105.358C102.851 107.867 103.956 109.856 105.317 111.328C106.685 112.784 108.209 113.726 109.889 114.154C111.565 114.571 113.303 114.476 115.1 113.868C116.898 113.26 118.337 112.282 119.416 110.933C120.492 109.574 121.126 107.902 121.319 105.918C121.519 103.919 121.195 101.665 120.347 99.1569ZM134.441 112.817L123.261 79.7468L135.662 75.5542C138.203 74.6953 140.483 74.4161 142.504 74.7165C144.536 75.0133 146.262 75.8091 147.684 77.1039C149.112 78.3843 150.183 80.0795 150.896 82.1895C151.613 84.3102 151.784 86.3039 151.407 88.1705C151.038 90.0228 150.125 91.6689 148.668 93.1089C147.208 94.5382 145.208 95.6822 142.667 96.5411L133.835 99.5273L132.153 94.5538L140.179 91.8406C141.664 91.3384 142.811 90.7226 143.62 89.9933C144.426 89.2532 144.92 88.4084 145.103 87.4589C145.293 86.495 145.189 85.4264 144.793 84.253C144.396 83.0796 143.826 82.1567 143.083 81.4843C142.336 80.8011 141.416 80.4043 140.323 80.294C139.227 80.1729 137.93 80.3653 136.434 80.8712L130.944 82.7272L140.432 110.792L134.441 112.817ZM146.459 92.0564L159.712 104.274L153.027 106.534L139.919 94.2674L146.459 92.0564ZM160.832 103.895L149.652 70.8246L171.161 63.5531L172.859 68.575L157.341 73.8212L160.376 82.7993L174.78 77.9298L176.477 82.9517L162.074 87.8212L165.125 96.8477L180.772 91.5578L182.47 96.5798L160.832 103.895ZM86.9442 190.099L66.4307 160.184L72.8736 158.006L87.048 180.294L87.3548 180.19L85.501 153.737L91.3626 151.756L105.962 173.918L106.253 173.819L103.99 147.487L110.433 145.308L112.28 181.534L106.37 183.532L91.9046 162.566L91.6462 162.654L92.8543 188.101L86.9442 190.099ZM144.768 152.126C145.973 155.689 146.337 158.966 145.861 161.958C145.392 164.936 144.239 167.485 142.401 169.606C140.573 171.723 138.212 173.271 135.316 174.25C132.42 175.229 129.598 175.433 126.85 174.863C124.11 174.278 121.644 172.946 119.454 170.868C117.271 168.775 115.579 165.952 114.378 162.4C113.173 158.836 112.806 155.566 113.274 152.589C113.75 149.597 114.902 147.042 116.729 144.925C118.567 142.804 120.934 141.254 123.83 140.275C126.726 139.296 129.542 139.094 132.279 139.668C135.027 140.238 137.493 141.57 139.676 143.663C141.866 145.742 143.563 148.562 144.768 152.126ZM138.745 154.162C137.897 151.654 136.789 149.671 135.421 148.214C134.06 146.743 132.541 145.799 130.865 145.382C129.185 144.955 127.446 145.045 125.648 145.653C123.85 146.26 122.413 147.244 121.338 148.603C120.258 149.952 119.618 151.626 119.418 153.624C119.226 155.609 119.553 157.855 120.401 160.363C121.249 162.872 122.354 164.861 123.715 166.333C125.083 167.789 126.607 168.732 128.287 169.159C129.963 169.576 131.7 169.481 133.498 168.873C135.296 168.265 136.735 167.287 137.814 165.938C138.89 164.579 139.524 162.907 139.717 160.923C139.917 158.924 139.593 156.67 138.745 154.162ZM152.839 167.822L141.659 134.752L154.06 130.559C156.601 129.7 158.881 129.421 160.902 129.722C162.934 130.018 164.66 130.814 166.082 132.109C167.51 133.389 168.581 135.085 169.294 137.195C170.011 139.315 170.181 141.309 169.805 143.176C169.435 145.028 168.523 146.674 167.066 148.114C165.606 149.543 163.606 150.687 161.065 151.546L152.232 154.532L150.551 149.559L158.576 146.846C160.062 146.343 161.209 145.728 162.018 144.998C162.824 144.258 163.318 143.413 163.501 142.464C163.691 141.5 163.587 140.431 163.19 139.258C162.794 138.085 162.224 137.162 161.481 136.489C160.734 135.806 159.814 135.409 158.721 135.299C157.625 135.178 156.328 135.37 154.832 135.876L149.342 137.732L158.83 165.797L152.839 167.822ZM164.857 147.061L178.11 159.279L171.425 161.539L158.317 149.272L164.857 147.061ZM179.23 158.9L168.05 125.83L174.041 123.804L179.178 138.999L179.581 138.863L187.346 119.306L194.661 116.833L186.889 135.996L205.955 149.865L198.753 152.3L184.093 141.458L181.891 147.025L185.221 156.875L179.23 158.9Z" fill="black"/>
</svg>
