<svg width="220" height="253" viewBox="0 0 220 253" fill="none" xmlns="http://www.w3.org/2000/svg">
<path d="M113.1 30.8175C117.456 27.1766 124.08 28.6714 126.452 33.8311L131.489 44.7877C133.224 48.5606 137.4 50.5601 141.425 49.5441L153.113 46.5939C158.616 45.2046 163.936 49.427 163.835 55.1054L163.623 67.1637C163.55 71.3162 166.445 74.9305 170.512 75.7625L182.322 78.1781C187.883 79.3157 190.845 85.4292 188.292 90.5017L182.871 101.274C181.004 104.983 182.046 109.497 185.348 112.012L194.941 119.315C199.458 122.754 199.476 129.548 194.976 133.01L185.421 140.361C182.131 142.893 181.111 147.412 182.998 151.112L188.472 161.856C191.05 166.915 188.12 173.044 182.565 174.21L170.768 176.685C166.706 177.538 163.827 181.167 163.923 185.319L164.197 197.376C164.325 203.054 159.028 207.303 153.517 205.942L141.814 203.05C137.784 202.055 133.618 204.075 131.903 207.857L126.921 218.84C124.575 224.012 117.959 225.54 113.585 221.922L104.295 214.236C101.096 211.589 96.4657 211.602 93.2803 214.263L84.0296 221.996C79.6732 225.637 73.0497 224.142 70.6775 218.983L65.6401 208.026C63.9056 204.252 59.729 202.254 55.7044 203.269L44.0168 206.219C38.5131 207.609 33.1936 203.386 33.294 197.708L33.5068 185.65C33.5801 181.497 30.6841 177.883 26.6176 177.051L14.8081 174.635C9.24687 173.498 6.2853 167.384 8.83808 162.312L14.2589 151.54C16.1255 147.831 15.084 143.317 11.7807 140.802L2.18844 133.499C-2.32889 130.06 -2.34607 123.266 2.15359 119.804L11.7089 112.452C14.9992 109.921 16.0181 105.402 14.1326 101.702L8.65718 90.9576C6.07863 85.8981 9.00925 79.7698 14.5646 78.6039L26.3616 76.1282C30.424 75.2758 33.3016 71.6467 33.2072 67.4947L32.9333 55.4375C32.8043 49.7598 38.1021 45.5105 43.6129 46.8718L55.3152 49.7627C59.345 50.7581 63.5114 48.7375 65.2268 44.9558L70.2085 33.9739C72.5545 28.8023 79.1704 27.2737 83.5451 30.8926L92.8349 38.5773C96.0339 41.2236 100.664 41.2119 103.849 38.5494L113.1 30.8175Z" fill="#F8FD1F"/>
<path d="M51.3451 113.019C52.5498 116.582 52.9141 119.859 52.4381 122.851C51.9693 125.829 50.8158 128.378 48.9778 130.499C47.1505 132.616 44.789 134.164 41.8931 135.143C38.9973 136.122 36.1755 136.326 33.4276 135.756C30.6868 135.171 28.2214 133.839 26.0313 131.761C23.8483 129.668 22.1563 126.845 20.9553 123.293C19.7506 119.729 19.3827 116.459 19.8516 113.482C20.3276 110.49 21.4792 107.935 23.3065 105.818C25.1445 103.697 27.5114 102.147 30.4072 101.168C33.303 100.189 36.1195 99.9868 38.8566 100.561C41.6045 101.131 44.07 102.463 46.253 104.556C48.4431 106.634 50.1405 109.455 51.3451 113.019ZM45.322 115.055C44.4741 112.547 43.366 110.564 41.9979 109.107C40.6368 107.636 39.1181 106.692 37.4418 106.275C35.7618 105.848 34.0229 105.938 32.2251 106.545C30.4273 107.153 28.9905 108.137 27.9147 109.496C26.8352 110.845 26.1955 112.518 25.9955 114.517C25.8028 116.502 26.1304 118.748 26.9783 121.256C27.8263 123.765 28.9308 125.754 30.2918 127.225C31.66 128.682 33.1841 129.624 34.8641 130.052C36.5404 130.469 38.2775 130.374 40.0753 129.766C41.873 129.158 43.3117 128.18 44.3912 126.831C45.467 125.472 46.1014 123.8 46.2941 121.816C46.4941 119.817 46.17 117.563 45.322 115.055ZM47.0149 101.653L45.3171 96.6315L71.7023 87.7113L73.4001 92.7332L63.1786 96.1888L72.6611 124.237L66.7187 126.246L57.2363 98.1978L47.0149 101.653ZM84.786 120.138L73.6058 87.0678L79.5966 85.0425L84.3296 99.0425L99.6537 93.8618L94.9207 79.8618L100.928 77.831L112.108 110.901L106.101 112.932L101.351 98.8837L86.0274 104.064L90.7768 118.113L84.786 120.138ZM115.44 109.775L104.26 76.7044L125.769 69.4329L127.467 74.4548L111.949 79.701L114.984 88.6791L129.388 83.8096L131.085 88.8315L116.682 93.701L119.733 102.728L135.38 97.4377L137.078 102.46L115.44 109.775ZM139.878 101.513L128.698 68.4427L141.099 64.2502C143.64 63.3913 145.92 63.112 147.941 63.4125C149.973 63.7093 151.699 64.5051 153.121 65.7999C154.549 67.0803 155.62 68.7754 156.333 70.8854C157.05 73.0061 157.22 74.9998 156.844 76.8665C156.474 78.7187 155.562 80.3648 154.105 81.8049C152.645 83.2341 150.645 84.3782 148.104 85.2371L139.271 88.2232L137.59 83.2497L145.615 80.5366C147.101 80.0343 148.248 79.4185 149.057 78.6892C149.863 77.9491 150.357 77.1043 150.54 76.1548C150.73 75.191 150.626 74.1223 150.229 72.9489C149.833 71.7755 149.263 70.8526 148.52 70.1802C147.773 69.497 146.853 69.1003 145.76 68.9899C144.664 68.8688 143.367 69.0612 141.871 69.5671L136.381 71.4232L145.869 99.4878L139.878 101.513ZM151.896 80.7524L165.149 92.9696L158.464 95.2297L145.356 82.9633L151.896 80.7524ZM60.1334 162.977C59.506 161.618 58.4996 160.735 57.1144 160.328C55.7399 159.917 54.1645 160.011 52.3883 160.612C51.1395 161.034 50.1321 161.584 49.366 162.263C48.5999 162.942 48.0891 163.685 47.8338 164.491C47.5785 165.297 47.5856 166.116 47.8551 166.949C48.088 167.637 48.4461 168.182 48.9293 168.583C49.4233 168.979 50.0049 169.263 50.674 169.432C51.3395 169.591 52.046 169.676 52.7935 169.687C53.541 169.699 54.2811 169.67 55.0139 169.602L58.3763 169.329C59.7233 169.198 61.0565 169.185 62.3757 169.291C63.7058 169.393 64.9557 169.666 66.1255 170.11C67.306 170.551 68.3456 171.213 69.2442 172.097C70.1427 172.981 70.834 174.138 71.318 175.57C71.9731 177.508 72.0548 179.381 71.563 181.191C71.0676 182.99 70.0234 184.621 68.4305 186.083C66.8447 187.53 64.7277 188.702 62.0795 189.597C59.5067 190.467 57.1383 190.824 54.9743 190.668C52.8211 190.508 50.9532 189.844 49.3707 188.676C47.7989 187.504 46.5987 185.834 45.7702 183.667L51.6641 181.675C52.1396 182.798 52.8188 183.636 53.7015 184.189C54.5843 184.742 55.59 185.038 56.7185 185.076C57.8578 185.111 59.0518 184.917 60.3006 184.495C61.6031 184.054 62.6787 183.475 63.5273 182.756C64.3831 182.023 64.9725 181.212 65.2958 180.323C65.6154 179.423 65.6204 178.498 65.3109 177.547C65.009 176.689 64.5158 176.064 63.8314 175.672C63.1433 175.269 62.2888 175.03 61.2679 174.955C60.2542 174.866 59.1042 174.871 57.8182 174.97L53.7282 175.273C50.7681 175.494 48.2566 175.162 46.1938 174.276C44.138 173.375 42.7098 171.741 41.9091 169.373C41.2504 167.424 41.2011 165.539 41.7611 163.719C42.3319 161.894 43.3958 160.269 44.9529 158.843C46.5064 157.406 48.4404 156.297 50.7549 155.514C53.1017 154.721 55.2961 154.435 57.3382 154.656C59.3874 154.863 61.1617 155.517 62.6613 156.617C64.1573 157.707 65.2362 159.177 65.8981 161.029L60.1334 162.977ZM65.6791 156.568L63.9813 151.546L90.3666 142.626L92.0643 147.648L81.8429 151.104L91.3253 179.152L85.383 181.161L75.9006 153.113L65.6791 156.568ZM113.117 134.935L119.107 132.91L126.412 154.515C127.212 156.884 127.357 159.156 126.845 161.332C126.344 163.505 125.258 165.437 123.587 167.13C121.912 168.812 119.729 170.107 117.038 171.017C114.336 171.931 111.809 172.227 109.458 171.907C107.103 171.575 105.067 170.698 103.35 169.275C101.634 167.852 100.375 165.957 99.5743 163.588L92.27 141.983L98.2608 139.957L105.396 161.062C105.862 162.44 106.578 163.566 107.545 164.438C108.522 165.307 109.669 165.861 110.985 166.1C112.298 166.328 113.713 166.186 115.231 165.672C116.749 165.159 117.961 164.414 118.866 163.436C119.778 162.444 120.353 161.308 120.592 160.027C120.831 158.747 120.717 157.418 120.252 156.04L113.117 134.935ZM133.616 164.855L122.436 131.785L143.622 124.622L145.319 129.644L130.124 134.781L133.16 143.759L146.901 139.114L148.599 144.135L134.857 148.781L139.607 162.83L133.616 164.855ZM157.077 156.923L145.896 123.853L167.082 116.691L168.78 121.713L153.585 126.85L156.62 135.828L170.362 131.182L172.06 136.204L158.318 140.85L163.067 154.898L157.077 156.923Z" fill="black"/>
</svg>
